<svg width="431" height="93" viewBox="0 0 431 93" fill="none" xmlns="http://www.w3.org/2000/svg">
<rect y="70.6981" width="95.0768" height="12.1893" rx="6.09467" fill="white"/>
<rect x="2.4375" y="41.4436" width="95.0768" height="12.1893" rx="6.09467" fill="white"/>
<rect x="2.4375" y="9.75159" width="95.0768" height="12.1893" rx="6.09467" fill="white"/>
<rect x="65.2861" y="31.6921" width="13.7792" height="31.95" rx="6.88962" fill="white"/>
<rect x="17.0649" y="60.9468" width="13.7792" height="31.95" rx="6.88962" fill="white"/>
<rect x="41.1997" width="13.7792" height="31.95" rx="6.88962" fill="white"/>
<path d="M193.825 14.0226V71.4458H182.307V34.096L166.923 71.4458H158.203L142.736 34.096V71.4458H131.219V14.0226H144.299L162.563 56.7198L180.826 14.0226H193.825Z" fill="white"/>
<path d="M247.58 47.6703C247.58 49.3156 247.47 50.7965 247.251 52.1128H213.932C214.206 55.4035 215.358 57.9812 217.387 59.846C219.417 61.7107 221.912 62.6431 224.874 62.6431C229.152 62.6431 232.196 60.8057 234.006 57.1311H246.428C245.112 61.5187 242.589 65.1385 238.859 67.9905C235.13 70.7876 230.55 72.1862 225.121 72.1862C220.733 72.1862 216.784 71.2264 213.274 69.3068C209.819 67.3323 207.104 64.5627 205.13 60.9977C203.21 57.4328 202.25 53.3194 202.25 48.6575C202.25 43.9408 203.21 39.8 205.13 36.235C207.049 32.6701 209.737 29.9278 213.192 28.0082C216.647 26.0886 220.623 25.1288 225.121 25.1288C229.453 25.1288 233.32 26.0612 236.72 27.9259C240.176 29.7907 242.836 32.4507 244.7 35.9059C246.62 39.3064 247.58 43.2278 247.58 47.6703ZM235.651 44.3796C235.596 41.4179 234.527 39.0596 232.443 37.3045C230.358 35.4946 227.808 34.5897 224.792 34.5897C221.94 34.5897 219.526 35.4672 217.552 37.2222C215.632 38.9224 214.453 41.3082 214.014 44.3796H235.651Z" fill="white"/>
<path d="M267.504 10.5674V71.4458H255.987V10.5674H267.504Z" fill="white"/>
<path d="M299.121 72.1862C294.734 72.1862 290.785 71.2264 287.275 69.3068C283.765 67.3323 280.995 64.5627 278.966 60.9977C276.991 57.4328 276.004 53.3194 276.004 48.6575C276.004 43.9956 277.019 39.8822 279.048 36.3173C281.132 32.7523 283.957 30.0101 287.522 28.0905C291.087 26.116 295.063 25.1288 299.451 25.1288C303.838 25.1288 307.814 26.116 311.379 28.0905C314.944 30.0101 317.741 32.7523 319.771 36.3173C321.855 39.8822 322.897 43.9956 322.897 48.6575C322.897 53.3194 321.827 57.4328 319.688 60.9977C317.604 64.5627 314.752 67.3323 311.133 69.3068C307.568 71.2264 303.564 72.1862 299.121 72.1862ZM299.121 62.1495C301.206 62.1495 303.153 61.6558 304.962 60.6686C306.827 59.6266 308.308 58.0909 309.405 56.0616C310.502 54.0323 311.05 51.5643 311.05 48.6575C311.05 44.3247 309.899 41.0066 307.595 38.7031C305.346 36.3447 302.577 35.1655 299.286 35.1655C295.995 35.1655 293.226 36.3447 290.977 38.7031C288.783 41.0066 287.686 44.3247 287.686 48.6575C287.686 52.9903 288.756 56.3358 290.895 58.6942C293.088 60.9977 295.831 62.1495 299.121 62.1495Z" fill="white"/>
<path d="M328.384 48.493C328.384 43.8859 329.289 39.8 331.099 36.235C332.963 32.6701 335.486 29.9278 338.667 28.0082C341.848 26.0886 345.386 25.1288 349.28 25.1288C352.242 25.1288 355.066 25.787 357.754 27.1033C360.441 28.3647 362.58 30.0649 364.17 32.2039V10.5674H375.853V71.4458H364.17V64.6998C362.744 66.9484 360.743 68.7583 358.165 70.1295C355.587 71.5006 352.598 72.1862 349.198 72.1862C345.358 72.1862 341.848 71.1989 338.667 69.2245C335.486 67.2501 332.963 64.4804 331.099 60.9154C329.289 57.2956 328.384 53.1548 328.384 48.493ZM364.253 48.6575C364.253 45.8604 363.704 43.4746 362.607 41.5002C361.51 39.4709 360.03 37.9352 358.165 36.8932C356.3 35.7963 354.298 35.2478 352.159 35.2478C350.02 35.2478 348.046 35.7688 346.236 36.8109C344.426 37.853 342.945 39.3886 341.794 41.4179C340.697 43.3923 340.148 45.7507 340.148 48.493C340.148 51.2352 340.697 53.6484 341.794 55.7325C342.945 57.7618 344.426 59.3249 346.236 60.4218C348.101 61.5187 350.075 62.0672 352.159 62.0672C354.298 62.0672 356.3 61.5462 358.165 60.5041C360.03 59.4072 361.51 57.8715 362.607 55.8971C363.704 53.8678 364.253 51.4546 364.253 48.6575Z" fill="white"/>
<path d="M430.703 25.8692L402.486 93H390.228L400.1 70.294L381.836 25.8692H394.752L406.517 57.707L418.445 25.8692H430.703Z" fill="white"/>
</svg>
